<svg xmlns="http://www.w3.org/2000/svg" viewBox="0 0 128 128" width="64" height="64"><path fill="#F7F7FB" d="M85 9h-60.3c-2.5 0-4.6 2.1-4.6 4.6v100.8c0 2.5 2.1 4.6 4.6 4.6h78.5c2.5 0 4.6-2.1 4.6-4.6v-82.5l-22.8-22.9v18.3c0 2.5 2.1 4.6 4.6 4.6h18.3"/><path fill="#DEDFE6" d="M85.1 94.5h-44.1c-1.7 0-3-1.3-3-3s1.3-3 3-3h44.1c1.7 0 3 1.3 3 3s-1.3 3-3 3zm0-18.3h-44.1c-1.7 0-3-1.3-3-3s1.3-3 3-3h44.1c1.7 0 3 1.3 3 3s-1.3 3-3 3zm0-18.4h-44.1c-1.7 0-3-1.3-3-3s1.3-3 3-3h44.1c1.7 0 3 1.3 3 3s-1.3 3-3 3z"/><path fill="#464C55" d="M110 29.8l-22.9-22.9c-.6-.5-1.5-.9-2.4-.9h-60c-4.2 0-7.6 3.4-7.6 7.6v100.8c0 4.2 3.4 7.6 7.6 7.6h78.6c4.2 0 7.6-3.4 7.6-7.6v-82.5c0-.8-.4-1.6-.9-2.1zm-22-13.6l12.7 12.7h-11.1c-.9 0-1.6-.7-1.6-1.6v-11.1zm16.8 98.2c0 .9-.7 1.6-1.6 1.6h-78.5c-.9 0-1.6-.7-1.6-1.6v-100.8c0-.9.7-1.6 1.6-1.6h57.2v15.3c0 4.2 3.4 7.6 7.6 7.6h15.3v79.5z"/></svg>