<svg width="256" height="256" viewBox="0 0 256 256" xmlns="http://www.w3.org/2000/svg" preserveAspectRatio="xMidYMid"><path d="M0 222.991c0 18.232 14.779 33.009 33.009 33.009h189.982c18.232 0 33.009-14.779 33.009-33.009v-189.982c0-18.232-14.779-33.009-33.009-33.009h-189.982c-18.232 0-33.009 14.779-33.009 33.009v189.982z" fill="#563D7C"/><path d="M106.158 113.238v-36.254h31.912c3.039 0 5.97.253 8.792.76s5.319 1.411 7.489 2.714c2.171 1.303 3.908 3.112 5.21 5.427 1.303 2.316 1.954 5.282 1.954 8.901 0 6.513-1.954 11.216-5.861 14.111-3.908 2.895-8.901 4.342-14.979 4.342h-34.517zm-34.083-62.738v155h75.112c6.947 0 13.713-.868 20.298-2.605 6.585-1.737 12.446-4.414 17.584-8.032 5.138-3.618 9.226-8.285 12.265-14.002 3.039-5.717 4.559-12.482 4.559-20.298 0-9.697-2.352-17.982-7.055-24.856-4.704-6.874-11.831-11.686-21.383-14.436 6.947-3.329 12.193-7.598 15.739-12.808 3.546-5.21 5.319-11.723 5.319-19.538 0-7.236-1.194-13.315-3.582-18.235-2.388-4.921-5.753-8.864-10.095-11.831-4.342-2.967-9.552-5.102-15.63-6.404-6.078-1.303-12.808-1.954-20.189-1.954h-72.941zm34.083 128.515v-42.549h37.122c7.381 0 13.315 1.7 17.801 5.102 4.486 3.401 6.73 9.081 6.73 17.041 0 4.052-.687 7.381-2.062 9.986-1.375 2.605-3.22 4.667-5.536 6.187-2.316 1.52-4.993 2.605-8.032 3.256-3.039.651-6.223.977-9.552.977h-36.471z" fill="#fff"/></svg>