<svg width="256" height="351" viewBox="0 0 256 351" xmlns="http://www.w3.org/2000/svg" xmlns:xlink="http://www.w3.org/1999/xlink" preserveAspectRatio="xMidYMid"><defs><path d="M1.253 280.732l1.606-3.131 99.353-188.518-44.15-83.475c-3.669-6.891-12.987-5.135-14.191 2.58l-42.617 272.544z" id="a"/><filter x="-50%" y="-50%" width="200%" height="200%" filterUnits="objectBoundingBox" id="b"><feGaussianBlur stdDeviation="17.5" in="SourceAlpha" result="shadowBlurInner1"/><feOffset in="shadowBlurInner1" result="shadowOffsetInner1"/><feComposite in="shadowOffsetInner1" in2="SourceAlpha" operator="arithmetic" k2="-1" k3="1" result="shadowInnerInner1"/><feColorMatrix values="0 0 0 0 0 0 0 0 0 0 0 0 0 0 0 0 0 0 0.06 0" in="shadowInnerInner1"/></filter><path d="M134.417 148.974l32.039-32.812-32.039-61.007c-3.042-5.791-10.433-6.398-13.443-.59l-17.705 34.109-.529 1.744 31.678 58.557z" id="c"/><filter x="-50%" y="-50%" width="200%" height="200%" filterUnits="objectBoundingBox" id="d"><feGaussianBlur stdDeviation="3.5" in="SourceAlpha" result="shadowBlurInner1"/><feOffset dx="1" dy="-9" in="shadowBlurInner1" result="shadowOffsetInner1"/><feComposite in="shadowOffsetInner1" in2="SourceAlpha" operator="arithmetic" k2="-1" k3="1" result="shadowInnerInner1"/><feColorMatrix values="0 0 0 0 0 0 0 0 0 0 0 0 0 0 0 0 0 0 0.09 0" in="shadowInnerInner1"/></filter></defs><path d="M0 282.998l2.123-2.972 100.405-190.514.212-2.017-44.261-83.137c-3.708-6.964-14.148-5.203-15.364 2.592l-43.114 276.047z" fill="#FFC24A"/><use fill="#FFA712" fill-rule="evenodd" xlink:href="#a"/><use filter="url(#b)" xlink:href="#a"/><path d="M135.005 150.381l32.955-33.751-32.965-62.93c-3.129-5.957-11.867-5.974-14.963 0l-17.612 33.589v2.861l32.584 60.232z" fill="#F4BD62"/><use fill="#FFA50E" fill-rule="evenodd" xlink:href="#c"/><use filter="url(#d)" xlink:href="#c"/><path fill="#F6820C" d="M0 282.998l.962-.967 3.496-1.421 128.478-128 1.628-4.431-32.05-61.074z"/><path d="M139.121 347.551l116.275-64.848-33.204-204.494c-1.039-6.398-8.888-8.928-13.467-4.34l-208.724 209.128 115.608 64.548c7.306 4.079 16.204 4.081 23.513.006" fill="#FDE068"/><path d="M254.354 282.16l-32.952-202.942c-1.031-6.35-7.558-8.977-12.103-4.424l-208.01 207.807 114.338 63.909c7.251 4.048 16.081 4.05 23.334.006l115.392-64.355z" fill="#FCCA3F"/><path d="M139.121 345.641c-7.308 4.076-16.206 4.074-23.513-.006l-114.677-63.621-.931.983 115.608 64.548c7.306 4.079 16.204 4.081 23.513.006l116.275-64.848-.285-1.752-115.99 64.689z" fill="#EEAB37"/></svg>