<svg xmlns="http://www.w3.org/2000/svg" width="64pt" height="64pt" viewBox="0 0 64 64"><g><path fill="#F1C40F" d="M7.5 62c0-2.75 2.25-5 5-5 0-2.75 2.25-5 5-5v10zm50.148-20.398l-22.648-22.602-22.648 22.602-4.203-4.203 26.852-26.898 26.852 26.898zm0 0"/><path fill="#E67E22" d="M52.5 58.5v-22.301l-17.5-17.199-17.5 17.5v25.5h38v-.5c0-1.648-1.352-3-3-3zm0 0"/><path d="M29.5 40h11v22h-11zm0 0M40.5 63.5h-11c-.852 0-1.5-.648-1.5-1.5v-22c0-.852.648-1.5 1.5-1.5h11c.852 0 1.5.648 1.5 1.5v22c0 .852-.648 1.5-1.5 1.5zm-9.5-3h8v-19h-8zm0 0"/><path fill="#F1C40F" d="M32.5 50.5c-.828 0-1.5.672-1.5 1.5s.672 1.5 1.5 1.5 1.5-.672 1.5-1.5-.672-1.5-1.5-1.5zm0 0"/><path d="M62.949 36.301l-26.898-26.852c-.551-.551-1.551-.551-2.102 0l-26.898 26.852c-.602.598-.602 1.551 0 2.098l4.25 4.25c.301.301.648.453 1.051.453.398 0 .797-.152 1.047-.453l21.602-21.547 16 16v20.148c-1.449.5-2.551 1.75-2.898 3.25h-29.102v-13.5c0-.852-.648-1.5-1.5-1.5s-1.5.648-1.5 1.5v3.699c-2.449.602-4.352 2.5-4.852 4.949-2.449.5-4.398 2.453-4.949 4.852h-4.199c-.852 0-1.5.648-1.5 1.5s.648 1.5 1.5 1.5h47.5c.852 0 1.5-.648 1.5-1.5v-.5c0-.852.648-1.5 1.5-1.5s1.5.648 1.5 1.5v.5c0 .852.648 1.5 1.5 1.5h1.5c.852 0 1.5-.648 1.5-1.5s-.648-1.5-1.5-1.5h-.102c-.348-1.5-1.449-2.75-2.898-3.25v-17.148l2.551 2.547c.301.301.648.453 1.051.453.398 0 .797-.152 1.047-.453l4.25-4.25c.602-.547.602-1.5.051-2.098zm-50.449 22.199c.852 0 1.5-.648 1.5-1.5 0-1.398.801-2.602 2-3.148v6.648h-6.648c.547-1.199 1.75-2 3.148-2zm45.148-19l-21.598-21.551c-.301-.301-.652-.449-1.051-.449-.398 0-.75.148-1.051.449l-21.598 21.551-2.102-2.102 24.75-24.75 24.75 24.75zm4.352 21c-.828 0-1.5.672-1.5 1.5s.672 1.5 1.5 1.5 1.5-.672 1.5-1.5-.672-1.5-1.5-1.5zm0 0"/></g></svg>