<svg width="256" height="255" viewBox="0 0 256 255" xmlns="http://www.w3.org/2000/svg" preserveAspectRatio="xMidYMid"><defs><linearGradient x1="12.959%" y1="12.039%" x2="79.639%" y2="78.201%" id="a"><stop stop-color="#387EB8" offset="0%"/><stop stop-color="#366994" offset="100%"/></linearGradient><linearGradient x1="19.128%" y1="20.579%" x2="90.742%" y2="88.429%" id="b"><stop stop-color="#FFE052" offset="0%"/><stop stop-color="#FFC331" offset="100%"/></linearGradient></defs><path d="M126.916.072c-64.832 0-60.784 28.115-60.784 28.115l.072 29.127h61.868v8.745h-86.442s-41.486-4.705-41.486 60.711 36.21 63.097 36.21 63.097h21.61v-30.356s-1.165-36.21 35.632-36.21h61.362s34.475.557 34.475-33.319v-56.014s5.234-33.897-62.518-33.897zm-34.114 19.587c6.155 0 11.13 4.975 11.13 11.13 0 6.155-4.975 11.13-11.13 11.13-6.155 0-11.13-4.975-11.13-11.13 0-6.155 4.975-11.13 11.13-11.13z" fill="url(#a)"/><path d="M128.757 254.126c64.832 0 60.784-28.115 60.784-28.115l-.072-29.127h-61.868v-8.745h86.442s41.486 4.705 41.486-60.711-36.21-63.097-36.21-63.097h-21.61v30.356s1.165 36.21-35.632 36.21h-61.362s-34.475-.557-34.475 33.319v56.014s-5.234 33.897 62.518 33.897zm34.114-19.587c-6.155 0-11.13-4.975-11.13-11.13 0-6.155 4.975-11.13 11.13-11.13 6.155 0 11.13 4.975 11.13 11.13 0 6.155-4.975 11.13-11.13 11.13z" fill="url(#b)"/></svg>