<svg width="256" height="308" viewBox="0 0 256 308" xmlns="http://www.w3.org/2000/svg" preserveAspectRatio="xMidYMid"><path d="M239.682 40.707c-28.568-40.889-84.991-53.008-125.787-27.016l-71.648 45.664c-19.571 12.312-33.051 32.298-37.135 55.057-3.418 18.959-.414 38.516 8.536 55.576-6.133 9.303-10.316 19.753-12.296 30.719-4.123 23.195 1.27 47.074 14.963 66.245 28.574 40.892 84.997 53.007 125.787 27.016l71.648-45.664c19.572-12.311 33.053-32.298 37.135-55.057 3.417-18.959.416-38.516-8.53-55.577 6.131-9.303 10.312-19.753 12.291-30.718 4.126-23.195-1.268-47.075-14.963-66.245" fill="#FF3E00"/><path d="M106.889 270.841c-23.101 6.007-47.497-3.036-61.102-22.649-8.239-11.532-11.484-25.896-9.003-39.849.416-2.268.988-4.504 1.713-6.693l1.35-4.116 3.672 2.697c8.48 6.231 17.961 10.968 28.035 14.008l2.664.808-.245 2.658c-.325 3.782.699 7.557 2.891 10.656 4.094 5.908 11.439 8.634 18.397 6.828 1.558-.416 3.042-1.069 4.402-1.935l71.671-45.673c3.546-2.233 5.99-5.853 6.734-9.977.743-4.206-.235-8.533-2.713-12.011-4.097-5.909-11.444-8.636-18.404-6.832-1.556.416-3.038 1.068-4.396 1.933l-27.349 17.434c-4.497 2.859-9.405 5.015-14.554 6.391-23.101 6.006-47.497-3.036-61.101-22.649-8.239-11.531-11.484-25.896-9.003-39.849 2.456-13.689 10.566-25.711 22.339-33.114l71.665-45.677c4.499-2.864 9.41-5.022 14.563-6.399 23.101-6.006 47.496 3.036 61.101 22.649 8.239 11.532 11.484 25.896 9.003 39.849-.418 2.267-.99 4.503-1.713 6.693l-1.35 4.116-3.67-2.693c-8.479-6.234-17.961-10.974-28.037-14.014l-2.664-.808.245-2.658c.323-3.782-.701-7.556-2.891-10.656-4.094-5.908-11.439-8.634-18.397-6.828-1.558.416-3.042 1.069-4.402 1.935l-71.671 45.675c-3.545 2.231-5.988 5.852-6.728 9.974-.747 4.205.229 8.535 2.708 12.012 4.097 5.909 11.444 8.636 18.404 6.832 1.557-.417 3.042-1.07 4.402-1.935l27.345-17.428c4.495-2.863 9.403-5.02 14.552-6.396 23.101-6.006 47.497 3.036 61.101 22.649 8.239 11.531 11.484 25.896 9.003 39.849-2.458 13.69-10.567 25.712-22.339 33.119l-71.665 45.673c-4.499 2.864-9.41 5.022-14.563 6.399" fill="#fff"/></svg>