<svg xmlns="http://www.w3.org/2000/svg" width="114.561" height="122.834" viewBox="0 0 30.311 32.5"><g><path fill="#e55b2d" d="M17.47 5.286v5.008l8.674 5.008v-5.008zm-17.348 5.008v5.008l4.337 2.504v-5.008zm13.01 2.504l-4.337 2.504v15.023l4.337 2.504v-10.016l4.337 2.504v-5.008l-4.337-2.504z"/><path fill="#ed8e24" d="M17.47 5.286l-13.011 7.512v5.008l8.674-5.008v5.008l4.337-2.504zm13.011 2.504l-4.337 2.504v5.008l4.337-2.504zm-8.674 10.016l-4.337 2.504v5.008l4.337-2.504zm-4.337 7.512l-4.337-2.504v10.016l4.337-2.504z"/><path fill="#f8bf3c" d="M17.47.279l-17.348 10.016 4.337 2.504 13.011-7.512 8.674 5.008 4.337-2.504zm0 15.024l-4.337 2.504 4.337 2.504 4.337-2.504z"/></g></svg>