<svg xmlns="http://www.w3.org/2000/svg" width="48pt" height="48pt" viewBox="0 0 48 48"><g><path d="M29.652 10.813v2.824h-1.883v-2.824c0-.566-.379-.941-.945-.941h-5.648c-.566 0-.945.375-.945.941v2.824h-1.883v-2.824c0-1.602 1.227-2.828 2.828-2.828h5.648c1.602 0 2.828 1.227 2.828 2.828zm0 0" fill="rgb(25.882353%,25.882353%,25.882353%)" stroke-width="2.63" stroke-linejoin="round" stroke="#000" stroke-miterlimit="10"/><path d="M39.07 41.898h-30.141c-2.074 0-3.77-1.695-3.77-3.77v-22.605c0-2.074 1.695-3.77 3.77-3.77h30.141c2.074 0 3.77 1.695 3.77 3.77v22.605c0 2.074-1.695 3.77-3.77 3.77zm0 0" fill="rgb(90.196078%,31.764706%,0%)" stroke-width="2.63" stroke-linejoin="round" stroke="#000" stroke-miterlimit="10"/><path d="M39.07 27.77h-30.141c-2.074 0-3.77-1.695-3.77-3.77v-8.477c0-2.074 1.695-3.77 3.77-3.77h30.141c2.074 0 3.77 1.695 3.77 3.77v8.477c0 2.074-1.695 3.77-3.77 3.77zm0 0" fill="rgb(100%,43.137255%,25.098039%)" stroke-width="2.63" stroke-linejoin="round" stroke="#000" stroke-miterlimit="10"/><path d="M25.883 25.883h-3.766c-.566 0-.941-.375-.941-.941v-1.883c0-.566.375-.941.941-.941h3.766c.566 0 .941.375.941.941v1.883c0 .566-.375.941-.941.941zm0 0" fill="rgb(100%,95.294118%,87.843137%)" stroke-width="2.63" stroke-linejoin="round" stroke="#000" stroke-miterlimit="10"/><path d="M26.824 7.984h-5.648c-1.602 0-2.828 1.227-2.828 2.828v2.824h1.883v-2.824c0-.566.379-.941.945-.941h5.648c.566 0 .945.375.945.941v2.824h1.883v-2.824c0-1.602-1.227-2.828-2.828-2.828zm0 0" fill="rgb(25.882353%,25.882353%,25.882353%)"/><path d="M39.07 41.898h-30.141c-2.074 0-3.77-1.695-3.77-3.77v-22.605c0-2.074 1.695-3.77 3.77-3.77h30.141c2.074 0 3.77 1.695 3.77 3.77v22.605c0 2.074-1.695 3.77-3.77 3.77zm0 0" fill="rgb(90.196078%,31.764706%,0%)"/><path d="M39.07 27.77h-30.141c-2.074 0-3.77-1.695-3.77-3.77v-8.477c0-2.074 1.695-3.77 3.77-3.77h30.141c2.074 0 3.77 1.695 3.77 3.77v8.477c0 2.074-1.695 3.77-3.77 3.77zm0 0" fill="rgb(100%,43.137255%,25.098039%)"/><path d="M25.883 25.883h-3.766c-.566 0-.941-.375-.941-.941v-1.883c0-.566.375-.941.941-.941h3.766c.566 0 .941.375.941.941v1.883c0 .566-.375.941-.941.941zm0 0" fill="rgb(100%,95.294118%,87.843137%)"/></g></svg>