<svg xmlns="http://www.w3.org/2000/svg" width="64" height="64" viewBox="0 0 48 48"><g><path fill="#424242" stroke="#000" stroke-linejoin="round" stroke-miterlimit="10" stroke-width="2.63" d="M29.652 10.813v2.824h-1.883v-2.824c0-.566-.379-.941-.945-.941h-5.648c-.566 0-.945.375-.945.941v2.824h-1.883v-2.824c0-1.602 1.227-2.828 2.828-2.828h5.648c1.602 0 2.828 1.227 2.828 2.828zm0 0"/><path fill="#E65100" stroke="#000" stroke-linejoin="round" stroke-miterlimit="10" stroke-width="2.63" d="M39.07 41.898h-30.141c-2.074 0-3.77-1.695-3.77-3.77v-22.605c0-2.074 1.695-3.77 3.77-3.77h30.141c2.074 0 3.77 1.695 3.77 3.77v22.605c0 2.074-1.695 3.77-3.77 3.77zm0 0"/><path fill="#FF6E40" stroke="#000" stroke-linejoin="round" stroke-miterlimit="10" stroke-width="2.63" d="M39.07 27.77h-30.141c-2.074 0-3.77-1.695-3.77-3.77v-8.477c0-2.074 1.695-3.77 3.77-3.77h30.141c2.074 0 3.77 1.695 3.77 3.77v8.477c0 2.074-1.695 3.77-3.77 3.77zm0 0"/><path fill="#FFF3E0" stroke="#000" stroke-linejoin="round" stroke-miterlimit="10" stroke-width="2.63" d="M25.883 25.883h-3.766c-.566 0-.941-.375-.941-.941v-1.883c0-.566.375-.941.941-.941h3.766c.566 0 .941.375.941.941v1.883c0 .566-.375.941-.941.941zm0 0"/><path fill="#424242" d="M26.824 7.984h-5.648c-1.602 0-2.828 1.227-2.828 2.828v2.824h1.883v-2.824c0-.566.379-.941.945-.941h5.648c.566 0 .945.375.945.941v2.824h1.883v-2.824c0-1.602-1.227-2.828-2.828-2.828zm0 0"/><path fill="#E65100" d="M39.07 41.898h-30.141c-2.074 0-3.77-1.695-3.77-3.77v-22.605c0-2.074 1.695-3.77 3.77-3.77h30.141c2.074 0 3.77 1.695 3.77 3.77v22.605c0 2.074-1.695 3.77-3.77 3.77zm0 0"/><path fill="#FF6E40" d="M39.07 27.77h-30.141c-2.074 0-3.77-1.695-3.77-3.77v-8.477c0-2.074 1.695-3.77 3.77-3.77h30.141c2.074 0 3.77 1.695 3.77 3.77v8.477c0 2.074-1.695 3.77-3.77 3.77zm0 0"/><path fill="#FFF3E0" d="M25.883 25.883h-3.766c-.566 0-.941-.375-.941-.941v-1.883c0-.566.375-.941.941-.941h3.766c.566 0 .941.375.941.941v1.883c0 .566-.375.941-.941.941zm0 0"/></g></svg>